<svg xmlns="http://www.w3.org/2000/svg" viewBox="0 0 32 32">
  <!-- Fond rond sombre -->
  <rect width="32" height="32" rx="6" fill="#121418"/>

  <!-- Corps du requin -->
  <path d="M3 18 C6 13 11 11.5 16 12 C21 12.5 26 14 29 18 C26 21 21 22.5 16 22 C11 21.5 6 21 3 18Z"
        fill="rgba(232,194,82,0.18)" stroke="#e8c252" stroke-width="1.2"/>

  <!-- Aileron dorsal -->
  <path d="M14.5 12 L12 5 L20 12"
        fill="rgba(232,194,82,0.25)" stroke="#e8c252" stroke-width="1.1" stroke-linejoin="round"/>

  <!-- Queue -->
  <path d="M27 17 L31 13 M27 19 L31 23"
        stroke="#e8c252" stroke-width="1.3" stroke-linecap="round"/>

  <!-- Aileron pectoral -->
  <path d="M12 18.5 L7 22 L13.5 20" fill="rgba(232,194,82,0.12)" stroke="#e8c252" stroke-width="0.9"/>

  <!-- Oeil -->
  <circle cx="8.5" cy="17.5" r="1.4" fill="#e8c252"/>
  <circle cx="8.5" cy="17.5" r="0.6" fill="#121418"/>

  <!-- Dents -->
  <path d="M4.5 20 L6 18.5 L7.5 20 L9 18.5 L10.5 20 L12 18.5 L13 20"
        stroke="#e8c252" stroke-width="0.85" stroke-linecap="round" stroke-linejoin="round" fill="none"/>
</svg>
